<?xml version="1.0" encoding="UTF-8" standalone="no"?>
<svg
   xmlns:dc="http://purl.org/dc/elements/1.1/"
   xmlns:cc="http://creativecommons.org/ns#"
   xmlns:rdf="http://www.w3.org/1999/02/22-rdf-syntax-ns#"
   xmlns:svg="http://www.w3.org/2000/svg"
   xmlns="http://www.w3.org/2000/svg"
   height="512"
   width="534"
   xml:space="preserve"
   viewBox="0 0 534 512"
   y="0px"
   x="0px"
   id="Capa_1"
   version="1.1"><metadata
     id="metadata336"><rdf:RDF><cc:Work
         rdf:about=""><dc:format>image/svg+xml</dc:format><dc:type
           rdf:resource="http://purl.org/dc/dcmitype/StillImage" /><dc:title></dc:title></cc:Work></rdf:RDF></metadata><defs
     id="defs334" /><g
     transform="matrix(1.6363761,0,0,1.6363761,10.49225,10.433491)"
     style="fill:#88171a;fill-opacity:0.61904764"
     id="g394"><path
       style="fill:#88171a;fill-opacity:0.61904764"
       d="m 299.74526,145.56189 c 0,0 6.9396,-145.55999791 -153.04,-145.55999791 C 5.2252589,0.00189209 0.80525894,139.63189 0.80525894,139.63189 c 0,0 -20.81099994,160.37 149.16000106,160.37 163.02,0 149.78,-154.44 149.78,-154.44 z m -197.8,-50.862998 c 30.017,-18.364 68.366,-7.1401 82.735,20.475998 2.7233,5.2338 3.0694,13.291 1.3447,18.782 -5.9546,18.956 -20.014,29.587 -39.312,34.103 5.6892,-4.8707 10.218,-10.394 11.659,-18.025 a 26.402,26.402 0 0 0 -4.5425,-20.956 26.76,26.76 0 0 0 -30.811,-9.3892 c -11.881,4.5111 -18.389,15.354 -17.216,28.683 1.0898,12.381 10.484,20.405 28.061,23.453 -2.627,1.3904 -4.6503,2.4144 -6.6299,3.5172 a 63.918,63.918 0 0 0 -20.544,17.868 c -1.7839,2.4084 -3.0104,2.6024 -5.727,0.94116 -35.338001,-21.61 -37.609001,-75.844 0.98226,-99.452998 z M 75.496259,228.22889 c -5.6769,1.441 -11.178,3.5742 -16.981,5.4775 2.8385,-19.151 25.265,-36.788 44.230001,-34.776 a 48.881,48.881 0 0 0 -9.242001,25.893 c -6.302,1.1606 -12.241,1.9414 -18.007,3.405 z M 196.28626,41.248892 c 5.6099,0.20612 11.23,0.12091 16.844,0.25378 a 29.052,29.052 0 0 1 4.1674,0.58069 40.607,40.607 0 0 1 -4.2357,5.4332 c -2.007,1.8701 -4.2745,3.6986 -7.1661,0.856 -0.6955,-0.68372 -2.3386,-0.52679 -3.5487,-0.54272 -5.5823,-0.07336 -11.172,-0.25177 -16.746,-0.04132 a 104.04,104.04 0 0 0 -14.425,1.473 c -0.89368,0.16046 -2.2299,3.1315 -1.8191,4.227 0.9693,2.5853 2.3833,5.4363 4.4779,7.0898 7.7403,6.11 15.972,11.596 23.748,17.664 7.556,5.8966 14.589,12.358 18.875,21.253 5.5843,11.589998 5.747,23.742998 3.3388,35.949998 -4.0203,20.378 -14.333,37.261 -31.032,49.524 -6.7288,4.941 -15.06,7.7451 -22.767,11.295 -6.778,3.1225 -13.755,5.8115 -20.549,8.9008 -12.249,5.5695 -19.133,18.865 -17.108,32.688 1.8585,12.685 12.987,23.271 25.735,25.456 15.292,2.6216 31.071,-7.3163 34.812,-22.86 4.2067,-17.478 -5.2898,-33.083 -23.065,-37.813 -0.78271,-0.20831 -1.5684,-0.40552 -3.2012,-0.8269 4.7549,-2.1245 8.8614,-3.6381 12.653,-5.7244 q 9.9213,-5.4594 19.481,-11.562 c 1.8742,-1.199 2.8868,-1.1996 4.4852,0.18225 12.225,10.57 19.518,23.718 21.563,39.839 3.3845,26.684 -9.2471,51.198 -33.072,63.762 -36.86,19.439 -81.965,-2.6864 -90.106001,-43.552 -6.9738,-35.003 17.730001,-66.754 47.462001,-72.884 12.787,-2.6364 24.48,-7.9596 33.57,-17.807 5.8652,-6.3541 8.7084,-11.806 9.6772,-14.266 a 39.565,39.565 0 0 0 2.7211,-14.469 33.867,33.867 0 0 0 -2.9654,-12.398 c -3.104,-7.075 -14.995,-18.329998 -17.939,-20.703998 l -28,-21.921 c -0.98761,-0.81256 -2.0994,-0.75366 -4.5079,-0.59045 -2.8611,0.19391 -10.175,0.59888 -13.331,-0.22815 2.553,-1.9321 9.5132,-4.7451 12.502,-7.007 -9.0734,-6.1297 -19.43,-3.9158 -28.941,-5.7461 2.1992,-4.0959 13.081,-10.39 19.27,-11.091 a 91.533,91.533 0 0 0 -1.6876,-10.281 c -0.37781,-1.3917 -1.9312,-2.7408 -3.2864,-3.5355 -3.286,-1.9267 -6.7694,-3.5167 -10.549,-5.4327 a 21.936,21.936 0 0 1 11.332,-3.5055 42.316,42.316 0 0 1 11.348,1.1056 c 6.7422,1.5405 12.124,0.53491 17.488,-4.048 -4.222,-1.7002 -8.4435,-3.2535 -12.538,-5.0907 a 123.04,123.04 0 0 1 -11.779,-6.1582999 c 10.622,1.4754999 20.896,5.4584999 31.757,4.0033999 q 0.1387,-0.74048 0.27728,-1.4809 c -8.1194,-1.8898999 -16.239,-3.7797999 -25.229,-5.8723999 15.04,-1.3769 29.042,-1.604 42.301,4.8540999 3.731,1.8173 7.6348,3.3215 11.211,5.3972 1.7443,1.0124 2.9186,3.0078 4.3496,4.5594 1.1366,1.2325 2.0495,2.8837 3.446,3.6264 5.3,2.8184 11.134,2.9291 17.078,2.7879 0.0444,-0.67694 0.0861,-1.3114 0.1308,-1.9933 5.9821,1.8693 12.715,8.7679 12.704,13.806 -9.6911,0 -19.374,-0.037 -29.056,0.05389 -1.0348,0.0097 -2.0626,0.76563 -3.0936,1.1754 0.97986,0.57067 1.9428,1.5994 2.9423,1.6362 z"
       id="path390" /><path
       style="fill:#88171a;fill-opacity:0.61904764"
       d="m 183.78526,26.907892 a 1.4806,1.4806 0 0 0 -0.18927,2.3686 2.2326,2.2326 0 0 0 3.0724,0.8219 c 0.9328,-0.47052 1.8478,-0.97137 2.975,-1.5665 -0.9079,-0.775 -1.6362,-1.4148 -2.3857,-2.0324 -1.318,-1.086 -2.411,-0.40386 -3.4724,0.40833 z"
       id="path392" /></g><path
     id="path287"
     d="M 524.2702,385.86116 523.18209,152.95798 H 123.92292 L 63.338773,94.960599 C 57.000062,103.19093 50.104998,113.91738 43.741635,125.84918 37.58014,137.40247 31.91861,150.08634 27.655369,162.69919 l 0.277875,222.39255 z"
     style="fill:#1d1d1d;fill-opacity:1;stroke-width:1.08811915" /><g
     id="g301" /><g
     id="g303" /><g
     id="g305" /><g
     id="g307" /><g
     id="g309" /><g
     id="g311" /><g
     id="g313" /><g
     id="g315" /><g
     id="g317" /><g
     id="g319" /><g
     id="g321" /><g
     id="g323" /><g
     id="g325" /><g
     id="g327" /><g
     id="g329" /><path
     id="rect626"
     d="m 58.191129,142.47676 v 51.05699 174.63414 H 486.38721 V 193.53375 h -373.2577 z"
     style="opacity:1;fill:none;fill-opacity:1;fill-rule:nonzero;stroke:none;stroke-width:4.93040276;stroke-miterlimit:4;stroke-dasharray:none;stroke-opacity:1" /><g
     id="flowRoot2322"
     style="font-style:normal;font-variant:normal;font-weight:500;font-stretch:normal;font-size:106.66666412px;line-height:1.25;font-family:Cochin;-inkscape-font-specification:'Cochin, Medium';font-variant-ligatures:normal;font-variant-caps:normal;font-variant-numeric:normal;font-feature-settings:normal;text-align:start;letter-spacing:0px;word-spacing:0px;writing-mode:lr-tb;text-anchor:start;fill:#fdfdfd;fill-opacity:1;stroke:none"
     transform="matrix(1.0397852,0,0,1.0397852,5.1364156,-13.781294)"
     aria-label="BRAVO"><path
       id="path2359"
       style="font-style:normal;font-variant:normal;font-weight:500;font-stretch:normal;font-size:106.66666412px;font-family:Cochin;-inkscape-font-specification:'Cochin, Medium';font-variant-ligatures:normal;font-variant-caps:normal;font-variant-numeric:normal;font-feature-settings:normal;text-align:start;writing-mode:lr-tb;text-anchor:start;fill:#fdfdfd;fill-opacity:1"
       d="m 89.826666,251.79997 q 0,-4.48 -0.32,-7.36 -0.213333,-2.98667 -1.386666,-4.8 -1.066667,-1.81333 -3.2,-2.66666 -2.133334,-0.85334 -5.973333,-1.17334 v -1.28 q 3.306666,0.21334 6.506666,0.32 3.2,0.10667 6.506667,0.10667 4.266666,0 8.53333,-0.42667 4.26667,-0.42666 9.17334,-0.42666 4.48,0 9.38666,0.96 5.01334,0.96 9.17334,3.30666 4.16,2.24 6.93333,6.08 2.77333,3.84 2.77333,9.6 0,4.8 -3.09333,8.74667 -2.98667,3.84 -7.46667,5.33333 v 0.21333 q 7.36,2.34667 11.41334,7.25334 4.16,4.8 4.16,12.8 0,4.90666 -2.13334,8.21333 -2.13333,3.2 -5.65333,5.22667 -3.52,1.92 -8,2.66666 -4.48,0.85334 -9.17333,0.85334 -7.36,0 -14.50667,-0.53334 -7.040001,-0.53333 -14.4,-0.53333 -2.453334,0 -5.013334,0.10667 -2.453333,0.10666 -4.906666,0.32 v -1.28 q 3.733333,-0.32 5.866666,-1.17334 2.133334,-0.85333 3.2,-2.66666 1.066667,-1.81334 1.28,-4.69334 0.32,-2.98666 0.32,-7.46666 z m 9.6,46.72 q 0.426667,0.85333 1.920004,1.49333 1.6,0.64 3.62666,1.17334 2.13334,0.42666 4.48,0.74666 2.34667,0.21334 4.48,0.21334 8.64,0 13.44,-4.48 4.90667,-4.58667 4.90667,-13.22667 0,-4.69333 -2.88,-8.53333 -2.88,-3.94667 -6.61333,-6.50667 -2.56,0.42667 -5.12,0.85333 -2.56,0.32 -5.22667,0.32 -3.30667,0 -6.61333,-0.32 -3.30667,-0.42666 -6.400004,-1.6 z m 0,-33.28 q 2.880004,1.49333 5.866664,2.02667 2.98667,0.53333 6.08,0.53333 6.82667,0 11.30667,-3.73333 4.58667,-3.84 4.58667,-10.98667 0,-3.62667 -1.49334,-6.50667 -1.49333,-2.88 -3.94666,-4.90666 -2.45334,-2.13334 -5.76,-3.2 -3.2,-1.17333 -6.72,-1.17333 -2.56,0 -5.01334,0.21333 -2.45333,0.21333 -4.906664,1.06666 z" /><path
       id="path2361"
       style="font-style:normal;font-variant:normal;font-weight:500;font-stretch:normal;font-size:106.66666412px;font-family:Cochin;-inkscape-font-specification:'Cochin, Medium';font-variant-ligatures:normal;font-variant-caps:normal;font-variant-numeric:normal;font-feature-settings:normal;text-align:start;writing-mode:lr-tb;text-anchor:start;fill:#fdfdfd;fill-opacity:1"
       d="m 226.845,304.27997 h -19.2 q -6.72,-7.36 -12.48,-15.04 -5.65333,-7.78667 -10.13333,-16.42667 -1.06667,0 -2.77334,-0.21333 -1.6,-0.21333 -3.41333,-0.42667 -1.70667,-0.32 -3.41333,-0.64 -1.6,-0.42666 -2.66667,-0.74666 v 16.64 q 0,4.48 0.21333,7.46666 0.32,2.88 1.38667,4.69334 1.17333,1.81333 3.41333,2.66666 2.24,0.85334 6.18667,1.17334 v 1.28 q -4.05333,-0.21334 -8.10667,-0.32 -4.05333,-0.10667 -8.10666,-0.10667 -3.94667,0 -7.78667,0.10667 -3.84,0.10666 -7.68,0.32 v -1.28 q 3.84,-0.32 5.97333,-1.17334 2.13334,-0.85333 3.2,-2.66666 1.17334,-1.81334 1.38667,-4.69334 0.32,-2.98666 0.32,-7.46666 v -35.62667 q 0,-4.48 -0.32,-7.36 -0.21333,-2.98667 -1.38667,-4.8 -1.06666,-1.81333 -3.2,-2.66666 -2.13333,-0.85334 -5.97333,-1.17334 v -1.28 q 3.41333,0.21334 6.82667,0.32 3.41333,0.10667 6.82666,0.10667 1.49334,0 3.73334,-0.10667 2.24,-0.21333 4.69333,-0.42666 2.56,-0.21334 5.12,-0.32 2.56,-0.21334 4.58667,-0.21334 4.58666,0 9.38666,1.17334 4.8,1.17333 8.64,3.73333 3.84,2.56 6.29334,6.50666 2.45333,3.94667 2.45333,9.38667 0,3.73333 -1.38667,6.61333 -1.28,2.88 -3.52,5.01334 -2.24,2.13333 -5.33333,3.52 -2.98667,1.38666 -6.29333,2.02666 1.49333,2.56 3.52,5.76 2.02666,3.2 4.48,6.50667 2.56,3.30667 5.33333,6.61333 2.88,3.2 5.97333,5.86667 3.2,2.56 6.50667,4.37333 3.30666,1.70667 6.72,2.02667 z m -54.08,-37.12 q 4.8,1.81333 9.92,1.81333 8.32,0 12.90667,-3.84 4.58666,-3.84 4.58666,-12.48 0,-3.52 -1.38666,-6.29333 -1.28,-2.88 -3.62667,-4.90667 -2.34667,-2.13333 -5.44,-3.2 -2.98667,-1.17333 -6.29333,-1.17333 -2.66667,0 -5.22667,0.21334 -2.56,0.21333 -5.01333,0.95999 -0.21334,5.12 -0.32,10.34667 -0.10667,5.22667 -0.10667,11.30667 z" /><path
       id="path2363"
       style="font-style:normal;font-variant:normal;font-weight:500;font-stretch:normal;font-size:106.66666412px;font-family:Cochin;-inkscape-font-specification:'Cochin, Medium';font-variant-ligatures:normal;font-variant-caps:normal;font-variant-numeric:normal;font-feature-settings:normal;text-align:start;writing-mode:lr-tb;text-anchor:start;fill:#fdfdfd;fill-opacity:1"
       d="m 248.46166,273.4533 -7.04,19.30667 c -0.21333,0.56889 -0.42667,1.06666 -0.64,1.49333 -0.14222,0.42667 -0.21333,0.88889 -0.21333,1.38667 0,1.28 0.35555,2.38222 1.06666,3.30667 0.78223,0.92444 1.70667,1.70666 2.77334,2.34666 1.06667,0.56889 2.16889,1.03112 3.30666,1.38667 1.13778,0.35555 2.09778,0.60444 2.88,0.74667 v 1.28 c -2.13333,-0.14223 -4.26667,-0.24889 -6.4,-0.32 -2.13333,-0.0711 -4.30222,-0.10667 -6.50666,-0.10667 -2.13333,0 -3.56992,0.005 -5.60209,-0.0136 -2.11133,0.011 -4.78564,0.0158 -7.09125,0.012 v -1.18233 c 2.20445,-0.49778 4.01778,-0.91385 5.44,-1.9094 1.49333,-1.06667 2.73778,-2.31111 3.73334,-3.73334 0.99555,-1.42222 1.84889,-2.98666 2.56,-4.69333 0.78222,-1.70667 1.52889,-3.48444 2.24,-5.33333 l 18.45333,-45.33334 c 0.21333,-0.49777 0.39111,-0.95999 0.53333,-1.38666 0.21333,-0.42667 0.32,-0.81778 0.32,-1.17334 0,-0.35555 -0.14222,-0.88889 -0.42666,-1.6 -0.21333,-0.71111 -0.49778,-1.3511 -0.85334,-1.91999 1.84889,-0.35556 3.44889,-0.81778 4.8,-1.38667 1.35111,-0.56889 2.84445,-1.17333 4.48,-1.81333 l 22.18667,61.01333 c 0.99555,2.77333 2.38222,4.97778 4.16,6.61333 1.77778,1.56445 4.40889,2.56 7.89333,2.98667 v 1.28 c -2.84444,-0.14223 -5.65333,-0.24889 -8.42666,-0.32 -2.70223,-0.0711 -5.54667,-0.10667 -8.53334,-0.10667 h -5.01333 -3.84 c -1.13778,0.0711 -2.24,0.14222 -3.30667,0.21333 -0.99555,0.0711 -2.09777,0.14223 -3.30666,0.21334 v -1.28 c 2.98667,-0.35556 5.47555,-1.10223 7.46666,-2.24 2.06223,-1.20889 3.09334,-2.80889 3.09334,-4.8 0,-0.56889 -0.14222,-1.13778 -0.42667,-1.70667 -0.21333,-0.56889 -0.39111,-1.10222 -0.53333,-1.6 l -6.93334,-19.62667 z m 11.52,-30.29333 -10.45333,27.09333 h 20.05333 z" /><path
       id="path2365"
       style="font-style:normal;font-variant:normal;font-weight:500;font-stretch:normal;font-size:106.66666412px;font-family:Cochin;-inkscape-font-specification:'Cochin, Medium';font-variant-ligatures:normal;font-variant-caps:normal;font-variant-numeric:normal;font-feature-settings:normal;text-align:start;writing-mode:lr-tb;text-anchor:start;fill:#fdfdfd;fill-opacity:1"
       d="m 289.02999,234.51997 q 3.73333,0.21334 7.36,0.32 3.62667,0.10667 7.36,0.10667 4.48,0 8.74667,-0.10667 4.26666,-0.10666 8.53333,-0.32 v 1.28 q -1.49333,0.21334 -3.2,0.53334 -1.70667,0.32 -3.2,1.06666 -1.49333,0.64 -2.45333,1.81333 -0.96,1.17334 -0.96,3.2 0,1.92 3.09333,9.6 l 16.74667,40.53334 13.86666,-32.74667 q 5.33334,-12.90667 5.33334,-17.6 0,-1.70667 -0.74667,-2.88 -0.74667,-1.17333 -2.02667,-1.81333 -1.28,-0.74667 -2.88,-1.06667 -1.49333,-0.42666 -3.09333,-0.64 v -1.28 q 3.62667,0.21334 7.14667,0.32 3.62666,0.10667 7.14666,0.10667 2.98667,0 5.86667,-0.10667 2.88,-0.10666 5.76,-0.32 v 1.28 q -3.73334,0.42667 -6.29334,2.45333 -2.56,2.02667 -4.37333,4.90667 -1.81333,2.88 -3.2,6.18667 -1.28,3.30666 -2.56,6.18666 l -22.18666,49.81334 h -2.34667 L 301.61666,246.8933 q -1.92,-4.58666 -4.8,-7.57333 -2.77334,-3.09333 -7.78667,-3.52 z" /><path
       id="path2367"
       style="font-style:normal;font-variant:normal;font-weight:500;font-stretch:normal;font-size:106.66666412px;font-family:Cochin;-inkscape-font-specification:'Cochin, Medium';font-variant-ligatures:normal;font-variant-caps:normal;font-variant-numeric:normal;font-feature-settings:normal;text-align:start;writing-mode:lr-tb;text-anchor:start;fill:#fdfdfd;fill-opacity:1"
       d="m 370.42999,269.6133 q 0,-8.64 3.09333,-15.46666 3.2,-6.82667 8.53334,-11.52 5.33333,-4.8 12.48,-7.25333 7.25333,-2.56 15.36,-2.56 8.10666,0 15.25333,2.56 7.25333,2.45333 12.58666,7.25333 5.33334,4.69333 8.42667,11.52 3.2,6.82666 3.2,15.46666 0,8.64 -3.2,15.46667 -3.09333,6.82667 -8.42667,11.62667 -5.33333,4.69333 -12.58666,7.25333 -7.14667,2.45333 -15.25333,2.45333 -8.10667,0 -15.36,-2.45333 -7.14667,-2.56 -12.48,-7.25333 -5.33334,-4.8 -8.53334,-11.62667 -3.09333,-6.82667 -3.09333,-15.46667 z m 11.30667,0 q 0,6.50667 1.92,12.48 1.92,5.97334 5.54666,10.56 3.62667,4.48 8.85334,7.25334 5.22666,2.66666 11.84,2.66666 6.61333,0 11.84,-2.66666 5.22666,-2.77334 8.85333,-7.25334 3.62666,-4.58666 5.54666,-10.56 1.92,-5.97333 1.92,-12.48 0,-6.50666 -1.92,-12.48 -1.92,-5.97333 -5.54666,-10.45333 -3.62667,-4.58667 -8.85333,-7.25333 -5.22667,-2.77333 -11.84,-2.77333 -6.61334,0 -11.84,2.77333 -5.22667,2.66666 -8.85334,7.25333 -3.62666,4.48 -5.54666,10.45333 -1.92,5.97334 -1.92,12.48 z" /></g></svg>